<?xml version="1.0" encoding="UTF-8"?><svg id="Layer_1" xmlns="http://www.w3.org/2000/svg" viewBox="0 0 109.31 42.89"><defs><style>
.cls-1 {
  fill: currentColor;
}
#Layer_1 {
  color: inherit;
}
</style></defs><path class="cls-1" d="m45.79,36.68L33.85,2.69h8.96l10.85,34.94L64.5,2.69h8.96l-12.01,34.01c-1.15,3.27-4.24,5.45-7.71,5.45h-.23c-3.47,0-6.57-2.19-7.72-5.47Z"/><path class="cls-1" d="m92.58,42.16c-3.64.08-8.64-.83-11.46-2.48-2.82-1.65-5.03-3.97-6.64-6.97-1.6-2.99-2.4-7.19-2.4-11.12s.78-6.76,2.36-9.86c1.58-3.1,3.77-5.51,6.56-7.24,2.79-1.73,6.09-2.59,9.88-2.59,3.55,0,6.68.82,9.41,2.48,1.18.71,2.82,1.91,4.35,4.22,4.64,6.99-.44,16.33-8.83,16.33h-15.18c.36,6.23,4.04,9.53,9.89,10.03,6.35.55,10.68-2.79,12.4-6l6.38,3.73s-5.14,9.19-16.73,9.45Zm-1.69-33.45c-7.71,0-10.19,6.04-10.57,10.2h20.4c-.15-2.53-.8-10.2-9.83-10.2Z"/><path class="cls-1" d="m32.46,11.78c-1.42-3.2-5.54-10.13-16.32-9.85C7.27,2.15.35,8.94.35,8.94l5.63,5.39c4.73-5.27,9.43-5.1,10.21-5.09,7.78.09,10.09,5.28,9.92,9.6h-14.99c-8.17,0-13.61,8.59-9.97,15.9,1.5,3,3.35,4.15,4.78,4.96,2.84,1.63,6.12,2.44,9.83,2.44,4.21,0,8.36-1.8,9.98-4.5v4.5h8.35v-20.44h0c0-3.95-.38-7.14-1.63-9.93Zm-17.28,23c-8.23-.4-9.05-7.46-9.21-9.95h20.13c-.28,4.6-3.1,10.33-10.92,9.95Z"/></svg>
